<?xml version="1.0" encoding="UTF-8"?>
<!DOCTYPE svg PUBLIC "-//W3C//DTD SVG 1.1//EN" "http://www.w3.org/Graphics/SVG/1.1/DTD/svg11.dtd">
<svg version="1.1" xmlns="http://www.w3.org/2000/svg" xmlns:xlink="http://www.w3.org/1999/xlink" width="202" height="136"  xml:space="preserve" id="blog2651953ffffffCanvas">
    <g id="blogffffff-group">
        <path id="blog-ffffff" stroke="none" fill="rgb(255, 255, 255)" d="M 353.75,1.28 C 333.2,6.45 317.15,22.95 311.15,44.93 310.4,47.93 302.6,88.2 293.82,134.4 285.12,180.6 277.92,218.48 277.85,218.55 277.77,218.63 275.67,215.93 273.12,212.55 251.22,182.93 223.1,163.8 191.15,156.83 185.97,155.63 181.55,155.4 167.52,155.4 152.22,155.4 149.3,155.63 142.02,157.13 135.27,158.63 123.12,162.45 116.75,165.15 115.47,165.68 115.4,164.7 115.4,151.95 115.32,123.53 112.77,113.48 101.3,96.08 85.25,71.85 62.9,57.38 41.52,57.3 20.45,57.3 4.25,69.53 0.57,88.2 -0.18,92.03 -0.18,111.53 0.5,184.58 1.02,234.98 1.55,286.13 1.77,298.28 2,310.43 2.3,340.65 2.6,365.4 2.9,401.1 3.27,411.53 4.17,416.03 9.2,441.08 34.77,466.13 62.75,473.4 83.67,478.88 106.17,470.4 114.27,453.9 115.55,451.43 116.6,449.25 116.67,449.1 116.75,448.95 118.85,450.08 121.32,451.58 128,455.7 143.37,462.83 150.27,465.08 176.37,473.55 204.35,473.7 228.95,465.45 232.62,464.25 235.62,463.35 235.7,463.43 235.77,463.58 236.6,466.35 237.57,469.65 241.7,484.43 252.2,495.9 268.77,503.85 280.77,509.55 286.77,510.9 301.02,510.9 311.52,510.9 313.7,510.68 318.65,509.18 338,503.1 351.72,489.3 358.32,469.13 359.3,466.28 360.12,464.03 360.2,464.03 360.35,464.03 363.05,465.23 366.27,466.73 392.15,478.65 428.37,477 458.52,462.53 482.22,451.13 507.87,427.2 526.77,398.78 530.82,392.7 532.02,391.43 532.55,392.33 533.9,394.73 548.6,407.18 556.02,412.2 560.15,415.05 566.75,419.1 570.65,421.2 577.7,424.95 577.77,425.03 574.77,425.03 558.35,425.1 540.65,440.7 535.77,459.53 533.97,466.35 534.5,478.5 536.82,484.5 541.1,495.53 554.07,510.15 567.35,519 587.97,532.73 613.55,540.6 653.15,545.48 668.52,547.43 703.1,547.43 715.62,545.55 751.1,540.23 775.85,525.45 792.72,499.73 804.35,481.88 809.75,461.03 808.92,436.65 808.55,423.98 785.22,222.68 783.2,214.28 779.6,199.28 766.85,185.93 750.95,180.6 734,174.98 715.25,178.5 703.55,189.68 L 700.4,192.6 697.25,190.05 C 684.5,179.7 665.6,170.48 647.15,165.6 621.95,158.93 597.27,157.43 577.92,161.48 574.7,162.08 571.92,162.53 571.85,162.38 571.7,162.3 570.35,159.83 568.77,156.98 555.5,133.05 530.3,115.2 502.85,110.4 494.37,108.98 477.57,108.9 469.32,110.4 456.2,112.65 439.85,118.43 428.67,124.65 425.37,126.53 422.52,127.95 422.37,127.8 422.22,127.65 424.7,113.7 427.85,96.83 434.22,62.55 434.82,55.2 432.27,45.15 428.22,28.95 416.67,15.68 399.35,7.28 388.02,1.8 382.47,0.45 370.02,0.08 361.4,-0.15 358.47,0.08 353.75,1.28 Z M 463.7,238.73 C 459.35,278.33 444.42,323.78 427.1,350.33 424.85,353.85 422.82,356.78 422.67,356.78 422.07,356.78 424.25,337.65 425.97,327.15 429.95,303.3 440.45,270.6 450.65,250.35 455.97,239.7 463.77,227.18 464.6,227.93 464.75,228.08 464.37,232.95 463.7,238.73 Z M 635.52,246.9 C 653.15,249.75 668.22,258.3 677.82,270.98 683.22,278.1 689.45,291.08 691.77,300.08 697.62,322.88 696.87,344.48 690.05,351 679.17,361.43 649.77,358.58 631.17,345.23 625.92,341.55 618.57,334.05 615.12,329.03 611.9,324.23 607.17,314.48 605.3,308.78 601.25,296.4 599.3,278.78 600.57,265.73 601.92,252 603.5,249.08 610.77,246.83 614.9,245.55 627.35,245.55 635.52,246.9 Z M 188.3,257.7 C 189.95,258.3 190.62,259.43 191.82,263.25 194.6,272.25 195.95,283.58 195.87,297.15 195.8,331.95 187.92,355.35 171.57,369.3 163.1,376.5 155.52,378.83 140.52,378.75 125.97,378.75 125.97,378.75 123.42,371.18 120.5,362.4 119.15,352.58 118.62,336.53 118.32,325.95 118.55,320.48 119.45,313.28 124.4,276.23 146.6,255.38 179.9,256.65 183.42,256.8 187.17,257.25 188.3,257.7 Z M 707.6,438.98 C 708.12,448.05 708.12,448.13 706.32,449.25 702.35,451.88 694.55,453 681.27,453.08 662.67,453.08 646.62,450.53 630.05,444.98 621.57,442.13 607.92,436.28 608.45,435.75 608.6,435.53 611.45,435.98 614.67,436.58 645.57,443.03 676.77,439.95 700.17,428.18 L 706.02,425.18 706.55,427.58 C 706.85,428.85 707.3,434.03 707.6,438.98 Z M 707.6,438.98" transform="translate(0.19, -0.36) scale(0.25, 0.25)"  />
    </g>
</svg>
