<?xml version="1.0" standalone="no"?>
<!DOCTYPE svg PUBLIC "-//W3C//DTD SVG 20010904//EN"
 "http://www.w3.org/TR/2001/REC-SVG-20010904/DTD/svg10.dtd">
<svg version="1.0" xmlns="http://www.w3.org/2000/svg"
 width="1280.000000pt" height="914.000000pt" viewBox="0 0 1280.000000 914.000000"
 preserveAspectRatio="xMidYMid meet">
<g transform="translate(0.000000,914.000000) scale(0.100000,-0.100000)"
fill="#000000" stroke="none">
<path d="M4877 9129 c-152 -36 -259 -169 -321 -399 -32 -121 -48 -212 -86
-485 -53 -382 -89 -555 -151 -731 -116 -329 -308 -519 -607 -602 -84 -23 -116
-26 -242 -27 -125 0 -155 3 -220 24 -152 47 -274 124 -400 251 -140 141 -253
311 -495 745 -153 275 -232 393 -326 487 -120 122 -243 168 -370 138 -209 -49
-491 -302 -546 -489 -36 -127 9 -269 130 -408 85 -98 174 -176 432 -378 377
-296 503 -412 628 -582 64 -87 140 -247 163 -343 24 -102 22 -249 -5 -362 -81
-339 -288 -555 -625 -652 -186 -54 -250 -59 -801 -62 -412 -2 -529 -5 -608
-18 -285 -47 -409 -165 -424 -406 -9 -156 50 -411 120 -515 44 -65 108 -122
166 -149 40 -18 63 -21 176 -20 119 0 140 4 250 36 66 20 246 87 400 148 471
189 622 236 837 261 354 41 646 -95 845 -394 118 -177 158 -385 118 -608 -40
-224 -123 -405 -401 -871 -237 -397 -292 -523 -301 -688 -4 -81 -2 -103 17
-152 51 -136 214 -252 449 -319 372 -107 566 37 656 484 13 67 42 250 65 407
50 354 80 502 130 653 120 359 303 552 607 643 107 32 300 43 409 25 231 -41
453 -206 649 -486 85 -123 126 -190 287 -480 237 -424 348 -570 494 -642 65
-32 82 -36 151 -36 121 0 238 54 385 178 186 156 274 323 248 468 -6 28 -27
86 -47 127 -55 108 -221 272 -488 481 -489 381 -644 537 -755 764 -62 126 -80
194 -87 325 -14 279 125 580 340 733 124 89 260 142 452 179 100 18 164 21
675 28 473 6 577 10 637 24 189 44 282 107 342 235 25 53 26 64 26 211 -1 137
-4 167 -28 255 -39 143 -76 216 -144 284 -80 79 -144 104 -273 103 -157 0
-293 -40 -707 -208 -505 -205 -746 -263 -999 -243 -208 17 -377 100 -525 257
-170 180 -241 350 -242 582 -1 266 89 493 411 1032 246 410 303 544 306 708 1
89 -1 100 -32 162 -41 83 -112 150 -219 206 -183 95 -400 141 -526 111z"/>
<path d="M9864 8386 c-9 -25 12 -44 59 -51 23 -4 79 -21 124 -36 405 -143 504
-482 263 -902 -55 -96 -56 -99 -36 -116 23 -19 39 -4 89 84 145 252 178 481
96 664 -70 155 -195 260 -392 330 -113 40 -194 51 -203 27z"/>
<path d="M898 8273 c-111 -116 -158 -268 -127 -415 26 -123 100 -247 262 -441
56 -66 128 -152 160 -191 32 -39 65 -76 74 -83 21 -16 53 1 53 27 0 11 -46 74
-102 141 -325 383 -379 475 -381 639 0 62 4 86 29 140 16 36 48 89 71 117 45
55 51 71 31 91 -19 19 -32 15 -70 -25z"/>
<path d="M9709 8137 c-156 -44 -223 -186 -279 -592 -58 -427 -92 -573 -171
-734 -114 -232 -314 -355 -574 -354 -159 0 -273 48 -403 168 -123 114 -190
214 -379 559 -178 327 -255 431 -359 484 -125 64 -275 12 -434 -148 -117 -119
-161 -239 -125 -345 40 -117 123 -208 365 -405 368 -299 473 -407 558 -576 50
-100 66 -167 66 -284 0 -80 -5 -122 -22 -176 -60 -194 -169 -330 -323 -404
-173 -82 -312 -101 -764 -99 -352 0 -428 -7 -520 -50 -138 -65 -190 -182 -165
-375 23 -173 65 -274 145 -344 108 -95 255 -82 585 53 427 175 529 208 680
223 231 24 423 -52 561 -222 59 -71 123 -198 138 -274 26 -128 7 -296 -54
-452 -44 -114 -84 -194 -219 -428 -196 -341 -236 -436 -236 -563 0 -152 102
-255 325 -330 97 -32 232 -34 291 -2 126 67 184 219 239 628 31 235 50 348 76
447 98 387 321 588 654 588 145 0 251 -38 368 -131 130 -104 229 -243 412
-579 185 -340 265 -449 364 -500 129 -65 279 -14 443 152 87 88 130 174 129
255 -2 155 -85 259 -425 533 -303 243 -420 367 -501 524 -130 252 -84 556 115
756 111 112 229 167 435 201 43 7 221 12 460 14 366 2 395 3 470 24 175 47
245 138 245 317 0 216 -78 405 -191 461 -125 61 -244 38 -639 -125 -374 -154
-484 -185 -665 -186 -190 -1 -291 41 -426 174 -206 203 -253 428 -154 726 42
127 93 230 253 509 70 121 143 258 163 305 84 196 78 322 -21 421 -111 111
-364 192 -491 156z"/>
<path d="M11323 3791 c-90 -42 -125 -134 -168 -436 -49 -341 -93 -465 -205
-568 -83 -77 -146 -101 -275 -101 -92 -1 -105 1 -166 30 -119 57 -210 168
-349 424 -136 251 -193 324 -277 356 -39 15 -52 16 -92 5 -98 -25 -227 -143
-257 -234 -13 -40 -14 -56 -5 -94 23 -88 83 -154 309 -338 173 -141 261 -236
309 -332 33 -67 38 -86 41 -167 3 -74 0 -103 -17 -154 -43 -125 -112 -207
-219 -258 -100 -47 -174 -57 -467 -59 -331 -3 -388 -14 -449 -85 -52 -62 -58
-177 -17 -309 35 -113 93 -161 193 -161 74 0 127 16 334 100 98 40 206 80 239
90 215 66 356 45 481 -72 128 -120 171 -273 125 -442 -28 -103 -73 -198 -178
-379 -130 -225 -165 -323 -149 -412 10 -54 86 -126 161 -154 150 -56 221 -53
289 12 59 56 86 145 121 392 46 331 88 457 184 558 100 106 257 150 399 113
152 -41 251 -150 432 -481 147 -269 205 -331 309 -329 69 0 118 24 195 95 76
70 110 128 110 193 1 100 -52 166 -284 356 -280 229 -369 349 -378 509 -11
187 79 351 232 422 106 50 176 59 488 62 265 3 287 5 340 26 67 26 112 73 129
133 22 82 -11 257 -61 328 -29 40 -91 69 -149 70 -65 0 -142 -23 -343 -104
-284 -115 -414 -143 -529 -116 -172 40 -313 206 -326 382 -10 137 31 253 182
518 128 225 157 290 162 370 3 51 0 73 -15 100 -59 108 -285 190 -389 141z"/>
<path d="M8963 1992 c-131 -140 -191 -283 -180 -433 11 -167 111 -303 283
-386 82 -39 126 -46 132 -22 2 13 -13 23 -58 40 -138 54 -248 154 -290 267
-28 73 -27 187 1 271 23 66 99 189 143 230 30 28 33 46 10 55 -9 3 -25 -5 -41
-22z"/>
</g>
</svg>
