<?xml version="1.0" standalone="no"?>
<!DOCTYPE svg PUBLIC "-//W3C//DTD SVG 20010904//EN"
 "http://www.w3.org/TR/2001/REC-SVG-20010904/DTD/svg10.dtd">
<svg version="1.0" xmlns="http://www.w3.org/2000/svg"
 width="929.000000pt" height="1280.000000pt" viewBox="0 0 929.000000 1280.000000"
 preserveAspectRatio="xMidYMid meet">
<g transform="translate(0.000000,1280.000000) scale(0.100000,-0.100000)"
fill="#000000" stroke="none">
<path d="M5669 12780 c-62 -32 -146 -118 -206 -208 -76 -114 -114 -220 -120
-338 -8 -133 -1 -160 58 -215 l49 -47 -20 -63 c-31 -103 -114 -231 -263 -408
-198 -234 -270 -363 -338 -601 -23 -80 -48 -158 -56 -174 l-15 -29 -54 99
c-59 110 -106 223 -129 311 -34 129 -43 362 -15 413 6 11 27 20 56 25 88 13
169 117 193 249 16 85 13 250 -5 326 -17 76 -98 248 -120 257 -22 8 -88 -40
-135 -99 -61 -77 -135 -237 -155 -338 -22 -111 -15 -230 19 -303 19 -43 33
-57 71 -77 45 -24 47 -27 42 -60 -3 -19 -8 -97 -12 -172 -4 -76 -9 -138 -11
-138 -2 0 -40 35 -83 77 -44 42 -93 84 -108 93 -15 10 -37 28 -50 42 -19 22
-21 30 -13 71 47 252 -240 481 -549 437 -78 -11 -200 -47 -200 -58 0 -4 20
-18 45 -31 51 -27 94 -81 151 -190 83 -160 208 -252 351 -259 52 -3 87 1 122
13 l49 18 58 -48 c116 -94 194 -201 340 -470 226 -416 277 -538 310 -731 20
-115 26 -426 8 -444 -7 -7 -26 9 -65 57 -74 91 -72 86 -53 143 34 104 2 244
-74 332 l-32 35 20 78 c13 53 20 111 20 178 l0 100 -43 -40 c-50 -46 -98 -66
-221 -92 l-88 -18 -29 45 -29 45 -14 -34 c-7 -19 -17 -49 -21 -67 -5 -23 -19
-41 -50 -62 -48 -33 -107 -107 -131 -166 -9 -22 -17 -69 -18 -106 -1 -45 -6
-72 -16 -82 -20 -19 -285 -169 -384 -217 -84 -41 -113 -47 -121 -26 -3 7 -2
50 2 96 l8 84 47 16 c61 21 104 62 137 131 24 51 26 65 26 200 0 165 -17 241
-82 360 -39 73 -99 150 -115 150 -19 0 -93 -83 -126 -141 -17 -30 -46 -97 -64
-149 -30 -88 -32 -104 -33 -225 0 -198 35 -284 132 -326 l43 -18 0 -114 0
-115 -76 -83 c-174 -190 -335 -413 -415 -571 -81 -160 -105 -297 -117 -653
l-7 -209 -94 104 c-215 241 -307 438 -365 792 -51 304 -56 475 -21 739 l13
104 54 48 c37 34 59 47 73 43 11 -2 40 -10 65 -16 130 -33 299 51 392 194 57
89 82 180 82 301 0 94 -18 205 -32 205 -4 0 -17 -16 -29 -35 -31 -47 -82 -79
-200 -124 -152 -58 -241 -129 -293 -236 -22 -44 -25 -64 -25 -157 l0 -108 -39
-37 -38 -38 5 40 c3 22 15 93 26 158 37 208 26 353 -40 543 -26 74 -32 109
-36 206 -5 116 10 317 26 361 6 15 23 28 49 35 64 19 143 99 181 181 86 187
34 407 -140 584 -42 42 -80 77 -86 77 -5 0 -7 -16 -5 -35 7 -58 -17 -130 -75
-222 -85 -136 -97 -170 -97 -293 -1 -95 2 -110 26 -161 15 -30 48 -75 74 -99
40 -38 45 -46 40 -74 -3 -17 -15 -99 -26 -183 -20 -149 -27 -183 -37 -183 -6
0 -32 21 -233 188 l-95 79 3 77 c4 99 -16 167 -72 243 -54 74 -142 134 -251
169 -116 39 -167 67 -213 119 l-40 46 -11 -51 c-16 -72 -13 -214 4 -289 33
-137 124 -256 246 -321 80 -42 178 -52 258 -25 l52 17 45 -39 c25 -21 62 -50
84 -66 57 -41 200 -197 239 -261 75 -125 114 -267 114 -416 0 -69 -11 -152
-41 -305 -22 -115 -43 -236 -47 -267 -3 -32 -9 -58 -13 -58 -4 0 -56 50 -117
112 -60 62 -126 125 -145 139 -32 24 -34 28 -22 53 31 70 -3 182 -78 255 -133
129 -318 201 -518 201 -128 0 -136 -6 -119 -81 19 -77 51 -139 120 -231 89
-118 194 -198 324 -245 97 -35 169 -29 220 19 21 19 26 20 50 8 53 -27 200
-187 232 -253 38 -78 47 -131 66 -397 17 -231 31 -361 45 -425 15 -65 14 -68
-23 -49 -17 9 -68 38 -112 65 -134 81 -337 137 -561 155 l-81 7 -32 64 c-17
35 -31 70 -31 78 0 8 11 31 25 51 29 43 55 123 55 170 0 196 -147 379 -364
454 -61 21 -204 45 -214 36 -3 -3 5 -17 17 -30 36 -39 59 -115 66 -222 8 -127
21 -185 57 -257 55 -111 147 -180 258 -195 33 -5 62 -11 64 -13 8 -8 67 -131
64 -133 -2 0 -128 1 -280 4 -192 3 -281 9 -289 17 -6 6 -26 44 -45 84 l-33 74
20 30 c54 80 71 157 58 253 -14 100 -58 173 -175 292 -101 104 -143 167 -144
220 -1 25 -1 24 -31 -10 -41 -47 -95 -161 -115 -239 -11 -45 -15 -94 -12 -161
3 -85 8 -104 40 -173 62 -130 165 -212 284 -224 49 -5 53 -8 73 -49 12 -24 23
-63 24 -86 2 -40 0 -43 -28 -49 -16 -4 -60 -7 -97 -8 l-68 -1 -24 38 c-89 141
-313 182 -503 91 -109 -52 -238 -191 -288 -313 -16 -37 -16 -38 2 -31 10 5 48
10 85 13 56 3 85 -1 175 -29 88 -27 125 -33 204 -33 91 -1 99 1 172 37 59 29
87 51 117 89 22 27 43 60 46 73 3 13 13 27 22 30 21 9 442 23 696 24 l190 1
-119 -112 c-155 -148 -143 -141 -200 -121 -144 49 -350 -58 -435 -227 -47 -93
-63 -177 -57 -300 3 -58 12 -122 19 -144 l14 -38 27 41 c34 52 82 83 192 126
121 48 163 74 228 144 80 87 101 147 94 272 l-6 97 67 59 c79 70 176 137 239
165 43 19 47 19 121 3 96 -22 286 -87 372 -127 92 -44 226 -182 300 -308 111
-190 259 -358 555 -629 341 -312 622 -599 721 -737 53 -75 55 -86 12 -73 -18
5 -222 14 -453 19 -427 10 -552 16 -572 28 -23 15 -153 245 -153 271 0 4 15
25 34 45 44 46 61 117 46 196 -23 126 -144 308 -263 397 -72 53 -198 116 -223
111 -29 -5 -47 -75 -47 -183 0 -191 68 -376 186 -501 67 -72 117 -96 192 -92
l50 3 68 -133 c38 -74 66 -136 64 -139 -3 -2 -76 -22 -163 -44 -86 -21 -219
-60 -295 -85 l-138 -47 -60 23 c-72 26 -87 42 -94 97 -17 133 -152 258 -317
294 -116 25 -273 -6 -393 -77 -32 -19 -62 -34 -65 -34 -4 0 -13 27 -19 61 -14
76 -90 229 -142 289 l-39 45 -55 -56 c-164 -168 -228 -537 -125 -720 22 -40
72 -79 101 -79 18 0 37 -29 37 -54 0 -9 -7 -16 -15 -16 -22 0 -19 -8 25 -66
42 -54 150 -256 150 -281 0 -15 -25 -13 -195 13 -49 8 -132 17 -182 20 -51 4
-93 11 -93 17 0 5 -13 25 -30 44 -35 40 -37 54 -9 92 84 114 -33 344 -248 487
-79 53 -221 105 -292 107 l-56 2 -3 -72 c-4 -94 17 -173 80 -302 43 -89 62
-117 132 -186 123 -123 212 -158 304 -119 l37 15 32 -38 c32 -37 32 -38 10
-44 -15 -4 -1 -8 41 -13 34 -5 62 -11 62 -15 0 -4 -22 -24 -50 -45 l-50 -38
-46 18 c-187 71 -412 -59 -506 -295 -20 -49 -23 -74 -23 -208 0 -83 3 -155 8
-159 4 -4 21 8 37 28 43 52 83 74 212 116 177 59 257 121 315 249 23 50 27 70
26 145 l-1 86 60 53 60 52 135 -23 c74 -12 201 -37 282 -55 171 -39 582 -153
595 -166 5 -4 16 -30 25 -56 14 -42 19 -48 41 -45 14 1 46 13 72 27 l48 24 52
-18 c78 -28 88 -32 88 -41 0 -8 -44 -18 -255 -56 -272 -49 -502 -116 -741
-215 -78 -33 -148 -59 -156 -59 -8 0 -32 13 -54 29 -63 46 -133 65 -222 58
-109 -8 -197 -54 -310 -162 -93 -88 -142 -119 -207 -131 l-39 -7 39 -34 c51
-44 204 -118 273 -132 246 -50 496 91 521 294 6 48 8 51 54 74 50 24 387 142
387 135 0 -2 -9 -36 -20 -75 -10 -39 -22 -97 -26 -130 -7 -58 -7 -59 -60 -89
-131 -74 -220 -269 -199 -439 12 -104 85 -283 129 -320 10 -9 15 -2 26 31 18
62 59 115 141 186 41 34 91 86 113 116 l39 54 33 -23 c47 -32 125 -49 194 -42
58 6 58 6 92 -31 53 -60 93 -111 158 -199 33 -44 82 -100 110 -123 27 -23 50
-48 50 -57 0 -8 -41 -34 -102 -63 -57 -27 -117 -58 -134 -69 l-30 -21 -34 25
c-96 71 -209 55 -355 -50 -149 -106 -261 -276 -299 -457 -6 -25 -3 -28 36 -39
67 -18 185 -4 299 34 128 44 197 86 284 172 104 102 132 173 103 255 -11 33
-10 35 33 72 26 22 66 44 98 54 124 36 300 143 515 313 71 56 131 99 134 97 2
-3 -1 -56 -8 -117 -8 -72 -11 -167 -7 -269 l6 -157 -54 -47 c-75 -64 -107
-134 -113 -242 -6 -108 6 -154 76 -293 55 -109 57 -117 57 -191 l0 -78 30 15
c79 41 205 191 245 292 81 207 11 447 -155 526 -49 23 -54 28 -60 66 -27 156
29 522 93 614 39 56 180 167 265 209 145 70 320 90 414 46 61 -29 292 -259
425 -425 204 -254 313 -443 348 -601 67 -311 122 -982 100 -1223 -27 -291
-205 -820 -384 -1138 -193 -345 -412 -588 -612 -680 -48 -22 -77 -28 -154 -31
-98 -4 -126 1 -357 63 -96 25 -286 45 -268 28 6 -5 40 -15 77 -22 116 -20 538
-146 538 -160 0 -12 -122 -75 -231 -118 l-94 -38 -247 3 c-279 4 -388 -6 -558
-49 -130 -33 -330 -126 -396 -183 -51 -46 -30 -45 65 3 169 85 318 123 551
141 146 11 456 4 465 -10 3 -4 -29 -45 -71 -91 -42 -46 -97 -111 -122 -144
-48 -64 -98 -162 -88 -172 7 -8 1 -17 78 102 107 163 224 258 468 380 298 149
515 289 640 415 98 98 229 267 355 458 91 140 133 179 167 161 24 -13 23 -40
-8 -145 -61 -213 -213 -539 -315 -673 -32 -43 -149 -172 -260 -287 -282 -294
-313 -334 -419 -549 -96 -196 -204 -458 -197 -478 2 -6 45 71 95 173 87 179
123 240 143 240 5 0 30 -31 55 -70 25 -38 49 -70 54 -70 11 0 -3 51 -41 158
l-31 83 56 77 c31 42 114 140 184 217 146 159 402 418 408 412 3 -2 0 -35 -6
-73 -12 -86 -13 -265 -1 -244 5 8 21 86 35 173 32 193 38 209 136 402 125 246
208 475 305 840 38 142 49 173 71 192 68 55 142 27 189 -72 34 -74 143 -401
194 -587 41 -153 63 -294 101 -673 29 -284 28 -372 -4 -468 -31 -93 -60 -152
-121 -246 -51 -78 -53 -86 -25 -71 45 24 174 254 187 333 3 21 11 36 17 34 6
-2 34 -49 62 -105 60 -118 102 -178 194 -282 37 -41 73 -86 81 -100 7 -14 16
-63 19 -110 l5 -85 17 84 c10 46 19 86 21 88 2 1 45 -15 95 -36 120 -53 258
-101 285 -101 13 1 -1 10 -35 25 -108 44 -273 136 -335 186 -157 124 -270 324
-318 559 -17 83 -32 406 -21 464 l7 37 119 -112 c127 -119 160 -146 160 -131
0 16 -82 121 -184 236 -106 118 -106 119 -145 321 -11 61 -37 166 -56 235 -60
206 -58 280 6 280 37 0 51 -7 159 -80 164 -110 178 -114 447 -129 358 -20 463
-59 630 -233 94 -98 97 -126 52 -422 -22 -150 -22 -143 -10 -130 6 5 28 74 50
153 22 80 45 149 50 154 16 16 46 -17 103 -113 29 -47 70 -110 92 -140 59 -81
200 -224 276 -280 70 -52 236 -137 247 -126 3 3 4 7 2 9 -2 2 -40 28 -83 58
-44 30 -127 100 -185 156 -103 100 -105 103 -86 119 32 26 143 74 219 95 l71
20 -105 -6 c-58 -2 -139 -14 -180 -24 -41 -11 -75 -19 -76 -18 0 1 -45 85 -98
187 -125 236 -189 333 -275 412 -87 79 -219 162 -309 194 -76 26 -234 44 -397
44 -119 0 -214 14 -272 40 -181 80 -432 538 -547 998 -102 404 -184 897 -231
1381 -14 141 -32 324 -41 406 -12 109 -15 200 -11 335 9 286 25 340 132 438
136 124 390 194 500 136 30 -16 47 -35 70 -78 l29 -58 -27 -192 c-15 -105 -28
-226 -27 -268 l0 -77 -43 -30 c-113 -77 -161 -172 -161 -316 1 -83 4 -100 48
-215 48 -126 60 -194 43 -253 -11 -40 8 -35 89 22 222 155 313 392 234 603
-25 67 -87 141 -142 169 l-40 20 5 132 c3 82 11 153 21 187 19 63 25 199 12
283 l-9 57 43 -15 c71 -25 200 -98 247 -139 59 -52 169 -194 225 -292 67 -117
160 -292 187 -351 l24 -51 -22 -31 c-68 -95 -83 -221 -41 -334 26 -69 94 -163
150 -208 65 -52 119 -126 137 -188 l16 -55 28 34 c16 18 44 65 63 104 107 218
83 443 -62 591 -59 59 -111 86 -182 94 l-55 6 -123 238 c-68 131 -121 241
-118 244 3 3 61 -7 128 -22 68 -15 155 -33 195 -40 81 -15 93 -20 93 -41 0
-26 39 -92 75 -129 66 -66 194 -115 299 -115 23 0 78 9 121 20 43 11 79 19 81
18 1 -2 16 -36 33 -76 31 -73 89 -170 116 -192 12 -10 21 -7 48 16 112 97 200
293 213 479 7 99 -16 223 -50 275 -22 33 -77 70 -105 70 -12 0 -13 50 -2 158
29 289 -99 574 -370 825 -89 83 -89 80 15 92 33 4 156 31 273 61 116 30 232
54 257 54 101 0 203 -63 275 -169 53 -77 136 -245 166 -335 34 -101 57 -254
53 -356 l-3 -85 -43 -14 c-54 -17 -98 -61 -131 -131 -22 -47 -26 -72 -29 -170
-5 -146 13 -234 72 -354 41 -84 116 -186 137 -186 21 0 102 101 135 168 75
156 103 347 69 490 -27 113 -65 165 -140 189 -28 9 -30 13 -36 74 -9 85 -9
248 0 278 6 22 8 21 59 -30 28 -30 52 -59 52 -66 0 -6 -10 -28 -21 -48 -18
-30 -21 -47 -17 -99 7 -86 45 -152 139 -246 117 -115 228 -174 391 -206 47 -9
93 -14 102 -11 24 9 21 119 -5 203 -43 141 -142 295 -239 373 -65 52 -166 101
-209 101 -20 0 -54 -9 -76 -20 l-39 -20 -54 52 c-67 66 -150 190 -198 294 -99
218 -189 323 -312 362 -66 21 -71 25 -61 43 34 63 440 434 637 581 212 158
249 169 354 100 35 -23 85 -63 111 -90 l48 -48 -12 -54 c-15 -70 -6 -131 31
-207 53 -107 144 -176 325 -243 85 -31 146 -74 176 -124 l18 -30 12 30 c17 45
24 234 10 306 -28 143 -132 283 -256 344 -52 25 -71 29 -145 29 -47 -1 -101
-4 -120 -9 -34 -7 -39 -4 -132 79 -56 48 -98 94 -98 104 0 14 35 33 144 79 80
34 151 62 159 62 7 0 26 -14 43 -31 59 -63 142 -81 246 -54 175 44 335 161
432 314 58 91 74 130 55 142 -73 48 -290 58 -430 21 -94 -25 -186 -71 -260
-128 -72 -58 -99 -105 -99 -178 l0 -57 -62 -29 c-35 -15 -86 -38 -115 -49
-104 -41 -311 -151 -441 -235 -74 -47 -138 -84 -142 -81 -11 7 0 274 12 298 5
9 15 17 23 17 7 0 38 22 68 50 78 71 111 148 111 260 1 47 -3 105 -7 130 l-8
45 44 28 c55 34 125 107 162 170 38 65 85 203 85 250 l0 38 -27 -19 c-53 -37
-102 -46 -230 -44 -153 3 -240 -15 -320 -67 -90 -58 -145 -135 -159 -221 -9
-54 -29 -66 -150 -91 -125 -25 -278 -34 -417 -24 l-109 7 7 36 c12 63 21 72
71 72 59 0 101 19 146 66 139 147 173 473 72 702 -13 28 -29 52 -36 52 -31 0
-142 -86 -192 -149 -111 -137 -172 -277 -183 -421 -9 -121 14 -184 87 -231 24
-16 25 -18 12 -65 -7 -27 -14 -50 -16 -51 -2 -2 -61 9 -132 23 -241 50 -397
38 -635 -47 -60 -21 -114 -39 -119 -39 -5 0 21 50 57 111 82 139 155 306 234
536 109 321 180 433 429 683 204 205 304 272 378 250 100 -28 160 -99 242
-287 l42 -95 -26 -55 c-50 -101 -44 -221 17 -338 36 -68 116 -152 182 -191 75
-43 182 -75 279 -81 l89 -6 -25 34 c-44 58 -56 93 -68 185 -25 201 -52 275
-131 360 -60 63 -124 95 -207 104 -77 8 -72 2 -155 170 -61 123 -121 200 -186
241 -15 10 -22 20 -17 27 10 16 163 93 262 132 121 48 209 69 364 86 l144 16
16 -23 c129 -199 411 -222 626 -52 56 45 133 142 170 215 30 60 31 72 2 57
-43 -24 -146 -16 -253 20 -55 18 -129 35 -165 38 -153 13 -302 -59 -359 -171
-13 -28 -33 -51 -48 -57 -27 -10 -195 -12 -230 -3 -34 9 -28 32 26 114 103
157 224 276 271 267 14 -3 51 -10 83 -16 47 -10 68 -9 119 4 133 34 223 112
299 259 64 123 95 163 151 195 l50 29 -54 20 c-124 46 -288 52 -400 13 -82
-28 -111 -46 -177 -107 -80 -74 -123 -159 -125 -246 0 -35 3 -76 7 -91 6 -23
3 -32 -21 -55 -16 -15 -51 -47 -77 -72 -67 -62 -157 -178 -196 -251 -41 -76
-71 -96 -215 -143 -61 -20 -145 -54 -186 -75 -234 -120 -519 -361 -728 -614
l-95 -116 -3 87 c-5 120 17 769 28 858 13 100 53 178 118 227 27 20 52 37 55
37 3 0 23 -11 43 -25 68 -46 180 -31 284 39 70 46 174 157 218 232 45 77 90
201 99 274 l6 48 -50 7 c-106 14 -314 -51 -436 -137 l-28 -20 8 44 c13 72 7
178 -16 265 -25 96 -27 179 -6 230 8 20 14 38 11 40 -6 6 -87 -29 -151 -66
-99 -57 -180 -143 -228 -240 l-42 -84 0 -116 c0 -103 3 -122 25 -166 13 -27
47 -72 74 -98 56 -54 58 -67 31 -177 -19 -74 -32 -162 -45 -295 -18 -193 -20
-206 -38 -203 -14 3 -16 18 -13 106 1 56 -1 102 -6 102 -4 0 -19 -12 -32 -26
-13 -14 -37 -32 -52 -39 l-28 -15 -93 108 c-131 150 -228 273 -228 289 0 8 7
36 16 63 11 34 15 74 13 123 -8 143 -90 255 -259 353 -77 44 -170 122 -170
141 0 5 28 8 62 8 60 0 62 -1 81 -35 31 -57 67 -89 126 -111 48 -18 71 -20
156 -16 119 6 194 25 292 72 124 61 263 184 249 221 -8 20 -90 70 -156 95
-184 69 -413 64 -568 -13 -73 -36 -105 -74 -117 -135 -9 -48 -17 -53 -87 -53
-48 0 -58 3 -58 17 0 15 -1 15 -12 1 -7 -8 -27 -18 -45 -21 -31 -6 -191 8
-201 17 -2 3 27 40 66 83 134 149 233 306 272 428 13 39 27 76 33 83 5 6 29
12 54 12 111 0 192 91 245 277 29 102 32 275 5 378 -20 76 -56 157 -72 162 -5
1 -26 -7 -46 -17z m-343 -1472 c-31 -107 -37 -145 -37 -228 -1 -155 45 -265
152 -365 75 -70 144 -98 248 -99 l85 -1 49 -70 c27 -38 95 -123 149 -188 55
-65 98 -120 96 -122 -2 -2 -44 -11 -95 -19 -155 -27 -237 -68 -312 -152 -69
-78 -86 -131 -91 -276 0 -5 -5 -8 -11 -8 -6 0 -25 -11 -41 -25 -17 -14 -73
-51 -124 -81 -105 -62 -229 -151 -320 -231 l-62 -53 -5 312 c-6 399 -4 386
-143 852 -28 91 -30 151 -9 267 28 160 120 382 185 447 36 36 118 57 244 61
46 1 48 0 42 -21z m1111 -600 c1 -40 3 -86 5 -102 2 -20 -3 -32 -17 -40 -11
-6 -31 -19 -44 -28 -37 -27 -51 -23 -51 16 0 19 5 36 10 38 6 2 15 32 21 68
14 91 17 97 47 109 15 5 27 10 27 10 0 1 1 -32 2 -71z m-196 -785 c12 -85 5
-364 -12 -518 -29 -249 -182 -684 -317 -900 -33 -53 -34 -53 -50 28 l-10 49
52 58 c62 70 86 133 86 230 0 95 -30 185 -94 278 -75 109 -96 155 -105 226
l-8 61 -70 -73 c-78 -79 -142 -190 -163 -281 -8 -32 -11 -90 -8 -146 9 -174
95 -300 238 -347 l45 -15 17 -73 17 -74 -40 -54 c-107 -142 -254 -272 -489
-432 -223 -153 -311 -223 -414 -331 -114 -119 -238 -281 -298 -392 -70 -127
-67 -127 -68 9 0 128 20 371 46 543 17 117 50 232 164 571 95 282 189 612 219
770 35 177 42 199 81 252 48 63 119 124 250 211 57 39 138 94 179 124 41 29
82 53 93 53 10 0 38 -10 61 -22 27 -13 67 -23 112 -26 173 -11 351 112 426
293 23 55 23 56 36 31 7 -14 18 -60 24 -103z m-2062 85 c35 -17 64 -23 119
-23 l73 0 57 -55 c87 -85 136 -105 258 -106 l101 0 34 -39 c51 -58 98 -135
105 -173 4 -19 4 -118 1 -220 -7 -261 -33 -360 -250 -987 -117 -338 -145 -407
-159 -399 -6 4 -39 68 -74 142 -64 134 -65 137 -62 211 l3 75 60 41 c101 68
150 169 149 310 0 69 -7 100 -48 220 -48 140 -54 187 -31 248 12 30 -20 20
-99 -33 -191 -129 -291 -329 -258 -521 7 -39 21 -88 33 -111 27 -53 92 -123
130 -138 l30 -13 -3 -81 -3 -81 -36 1 c-25 1 -58 16 -107 47 l-72 47 0 59 c0
89 -31 161 -99 230 -93 96 -204 141 -346 141 -101 0 -189 -21 -284 -67 l-75
-36 60 -27 c65 -30 95 -59 177 -171 97 -133 198 -196 328 -206 73 -5 88 -2
187 38 30 12 37 12 70 -7 64 -36 96 -52 140 -70 44 -18 100 -72 125 -121 8
-15 26 -63 41 -107 32 -97 33 -162 7 -416 -26 -242 -40 -453 -50 -733 -5 -140
-12 -232 -18 -238 -8 -8 -27 13 -69 77 -332 511 -434 636 -873 1074 -281 280
-325 329 -360 398 -58 114 -85 388 -58 567 30 190 108 405 159 439 33 22 149
37 252 34 l88 -3 19 -49 c23 -63 50 -90 118 -123 47 -22 74 -27 162 -31 182
-8 353 43 489 146 79 60 80 66 26 117 -96 93 -302 165 -470 165 -176 0 -300
-54 -331 -145 -13 -40 -13 -40 -77 -46 -108 -11 -223 -10 -235 2 -14 14 -1 44
58 131 93 137 227 264 409 387 112 75 283 181 293 181 3 0 28 16 57 35 61 41
69 42 129 13z m2331 -1608 c44 -44 89 -168 115 -320 14 -83 10 -110 -17 -110
-26 0 -73 -49 -97 -99 -61 -132 -11 -371 113 -545 50 -70 159 -176 182 -176
20 0 71 85 95 160 11 36 25 111 31 167 10 85 9 116 -4 190 -36 200 -107 308
-211 323 l-41 5 -28 122 c-23 106 -57 217 -83 277 -7 15 -5 17 11 12 37 -11
280 -46 369 -52 60 -4 136 -1 228 11 77 9 145 14 152 11 7 -2 35 3 62 13 88
33 89 33 122 5 24 -20 29 -29 21 -44 -5 -10 -14 -49 -20 -88 -13 -79 -1 -167
30 -238 22 -51 83 -120 124 -141 17 -9 34 -21 38 -27 23 -34 -11 -234 -53
-318 -44 -86 -274 -315 -444 -441 -91 -67 -291 -169 -380 -193 -50 -13 -138
-17 -528 -21 l-468 -6 21 54 c28 70 23 66 77 74 171 25 303 204 303 409 0 85
-19 166 -60 251 -31 65 -108 175 -122 175 -4 0 -8 -15 -8 -33 0 -52 -43 -125
-131 -221 -126 -138 -172 -259 -148 -391 12 -67 26 -98 66 -145 l27 -32 -23
-68 -24 -69 -76 -6 c-216 -19 -515 -131 -699 -262 -147 -105 -387 -336 -469
-450 -25 -35 -50 -63 -55 -63 -30 0 14 403 76 696 63 293 104 399 226 578 132
194 254 307 561 521 101 71 247 177 324 235 204 155 326 218 509 265 122 32
276 35 306 5z m-5179 -1146 c17 -8 74 -56 127 -105 123 -115 204 -158 314
-166 90 -7 158 11 225 59 l42 31 61 -23 c33 -12 60 -24 60 -26 0 -2 -36 -20
-80 -40 -44 -20 -80 -41 -80 -45 0 -13 3 -13 122 36 61 25 119 45 130 43 17
-3 16 -6 -6 -54 l-24 -52 -64 1 c-43 1 -74 -4 -96 -16 -128 -69 -232 -300
-232 -515 0 -93 0 -94 -22 -90 -86 19 -487 132 -503 142 -19 13 -55 61 -190
253 -53 75 -65 99 -65 131 0 45 8 54 67 70 48 14 96 64 126 131 15 34 22 73
25 149 5 112 7 115 63 86z m1809 -80 c0 -3 -11 -25 -25 -48 -25 -43 -26 -43
-94 -49 -189 -16 -312 -161 -346 -406 -18 -127 -32 -169 -75 -223 -20 -24 -26
-39 -19 -44 15 -9 141 4 214 22 290 74 463 365 350 588 l-29 58 29 55 29 56
180 -7 c351 -13 560 -44 623 -92 38 -29 221 -300 287 -425 88 -167 96 -231 96
-714 0 -435 -17 -1101 -28 -1121 -5 -10 -24 9 -67 69 -303 419 -774 845 -1108
1002 -134 63 -243 97 -612 189 -181 46 -363 93 -404 106 l-74 22 50 51 c109
112 171 218 204 345 34 134 22 212 -41 265 l-32 28 22 52 c12 29 27 58 33 65
55 68 470 155 765 161 39 0 72 -2 72 -5z m3290 -383 c36 -13 92 -39 125 -59
113 -68 313 -293 360 -405 l14 -34 -60 -59 -60 -59 -107 0 c-98 0 -111 -2
-160 -28 -113 -60 -178 -141 -238 -300 -38 -101 -101 -188 -145 -202 -58 -19
62 -47 196 -46 50 0 114 5 141 11 133 30 263 130 321 248 47 94 51 158 17 270
-5 19 2 31 41 68 26 24 54 44 61 44 36 0 54 -100 55 -305 0 -82 -2 -158 -6
-167 -4 -10 -16 -18 -28 -18 -72 0 -153 -82 -183 -186 l-15 -52 -42 23 c-73
41 -152 58 -241 53 -106 -6 -172 -35 -230 -99 -25 -28 -53 -49 -64 -49 -20 0
-237 47 -319 69 -51 14 -106 53 -221 158 -50 45 -108 94 -131 108 l-41 27 23
18 c12 10 37 27 55 38 34 20 34 20 78 1 67 -30 134 -35 210 -14 168 45 299
193 339 380 15 72 19 226 7 258 -7 16 -10 14 -30 -12 -34 -46 -100 -79 -214
-108 -128 -32 -207 -71 -268 -132 -74 -74 -103 -139 -107 -236 -1 -44 -3 -83
-3 -86 0 -4 -24 -25 -54 -48 l-55 -41 -63 30 c-90 42 -169 61 -284 67 -170 10
-217 -5 -511 -163 -39 -21 -75 -36 -79 -32 -12 12 23 162 55 240 98 235 350
506 618 665 147 87 298 139 483 167 151 23 170 24 445 22 232 -2 255 -4 315
-25z m-3895 -759 c311 -69 671 -239 860 -405 51 -45 42 -56 -56 -68 -145 -18
-258 -91 -486 -311 -77 -76 -147 -138 -155 -138 -20 1 -92 35 -104 51 -6 8
-14 35 -16 61 -13 119 -110 223 -257 274 -92 33 -228 33 -324 0 l-68 -23 -25
54 c-36 75 -109 151 -198 203 -42 25 -76 49 -76 55 0 29 56 172 74 190 23 23
121 43 331 70 150 19 382 13 500 -13z m-897 -100 c5 -32 -26 -132 -41 -132
-23 0 -107 98 -107 124 0 9 94 35 120 33 18 -1 26 -9 28 -25z m374 -737 c176
-165 370 -201 517 -94 l43 31 54 -22 c30 -12 54 -24 54 -25 0 -9 -191 -162
-250 -202 -107 -70 -158 -68 -247 10 -33 29 -259 285 -276 314 -7 11 10 63 21
63 2 0 40 -34 84 -75z"/>
<path d="M2810 3266 c0 -3 -7 -38 -16 -78 -8 -40 -21 -118 -27 -173 -15 -120
-26 -127 -82 -58 -74 93 -221 198 -266 191 -18 -2 -13 -9 34 -41 31 -21 76
-60 101 -87 56 -60 151 -203 137 -208 -5 -2 -46 8 -91 22 -129 41 -151 33 -50
-17 79 -39 170 -102 170 -117 0 -3 -73 -19 -162 -34 -210 -35 -564 -103 -603
-115 -55 -17 0 -11 279 29 581 83 1433 182 1810 210 78 5 144 15 150 21 8 9
-47 10 -219 6 -278 -8 -550 -28 -828 -63 -114 -15 -210 -24 -213 -21 -12 12 9
47 76 128 39 46 70 88 70 92 0 17 -41 -16 -100 -80 l-63 -68 6 85 c3 49 19
131 37 194 17 60 29 116 28 125 -8 41 -85 -187 -118 -348 -9 -47 -22 -87 -28
-89 -19 -6 -33 105 -33 258 0 83 3 171 7 195 3 25 4 45 0 45 -3 0 -6 -2 -6 -4z"/>
<path d="M5210 2889 c-58 -5 -114 -10 -125 -12 -23 -4 86 -12 360 -27 818 -46
1370 -115 1985 -249 205 -45 250 -53 250 -42 0 21 -589 168 -842 211 -538 90
-1312 147 -1628 119z"/>
</g>
</svg>
